<svg width="23" height="19" viewBox="0 0 23 19" fill="none" xmlns="http://www.w3.org/2000/svg">
<path d="M3.9617 0.599854H18.9029C19.8217 0.599793 20.7056 0.951308 21.3735 1.58229C22.0413 2.21327 22.4423 3.07588 22.4943 3.99317L22.4999 4.19681V14.711C22.4999 15.6298 22.1484 16.5137 21.5174 17.1815C20.8865 17.8494 20.0238 18.2504 19.1066 18.3024L18.9029 18.308H3.9617C3.04294 18.308 2.15899 17.9565 1.49117 17.3255C0.823349 16.6945 0.422296 15.8319 0.37028 14.9146L0.364746 14.711V4.19681C0.364686 3.27805 0.716201 2.3941 1.34718 1.72628C1.97816 1.05846 2.84077 0.657403 3.75806 0.605387L3.9617 0.599854H18.9029H3.9617ZM20.8397 6.54646L11.8197 11.2944C11.7178 11.3482 11.6059 11.3803 11.491 11.3885C11.3761 11.3966 11.2608 11.3808 11.1523 11.342L11.0461 11.2955L2.02488 6.54756V14.711C2.0249 15.1971 2.20768 15.6654 2.53695 16.0229C2.86622 16.3805 3.3179 16.6012 3.80233 16.6412L3.9617 16.6478H18.9029C19.3892 16.6478 19.8576 16.4648 20.2152 16.1353C20.5728 15.8058 20.7934 15.3539 20.8331 14.8693L20.8397 14.711V6.54646ZM18.9029 2.25999H3.9617C3.47563 2.26001 3.00733 2.44279 2.64977 2.77206C2.2922 3.10133 2.07152 3.55301 2.03152 4.03744L2.02488 4.19681V4.67161L11.4323 9.62213L20.8397 4.6705V4.19681C20.8397 3.71056 20.6568 3.24211 20.3273 2.88452C19.9978 2.52693 19.5458 2.30636 19.0612 2.26663L18.9029 2.25999Z" fill="#454545"/>
</svg>
