<svg width="20" height="20" viewBox="0 0 20 20" fill="none" xmlns="http://www.w3.org/2000/svg">
<path d="M3.25 2H16.75C17.5801 1.99995 18.3788 2.31755 18.9822 2.88767C19.5856 3.45779 19.948 4.23719 19.995 5.066L20 5.25V14.75C20.0001 15.5801 19.6824 16.3788 19.1123 16.9822C18.5422 17.5856 17.7628 17.948 16.934 17.995L16.75 18H3.25C2.41986 18.0001 1.62117 17.6824 1.01777 17.1123C0.414367 16.5422 0.0519987 15.7628 0.00500012 14.934L6.97518e-09 14.75V5.25C-5.43467e-05 4.41986 0.317554 3.62117 0.887672 3.01777C1.45779 2.41437 2.23719 2.052 3.066 2.005L3.25 2H16.75H3.25ZM18.5 7.373L10.35 11.663C10.258 11.7116 10.1568 11.7405 10.053 11.7479C9.94921 11.7553 9.84499 11.7411 9.747 11.706L9.651 11.664L1.5 7.374V14.75C1.50002 15.1892 1.66517 15.6123 1.96268 15.9354C2.26019 16.2585 2.6683 16.4579 3.106 16.494L3.25 16.5H16.75C17.1893 16.5 17.6126 16.3347 17.9357 16.037C18.2588 15.7392 18.4581 15.3309 18.494 14.893L18.5 14.75V7.373ZM16.75 3.5H3.25C2.81081 3.50002 2.38768 3.66517 2.06461 3.96268C1.74154 4.26019 1.54214 4.6683 1.506 5.106L1.5 5.25V5.679L10 10.152L18.5 5.678V5.25C18.5 4.81065 18.3347 4.38739 18.037 4.06429C17.7392 3.74119 17.3309 3.5419 16.893 3.506L16.75 3.5Z" fill="#454545"/>
</svg>
