<svg width="194" height="72" viewBox="0 0 194 72" fill="none" xmlns="http://www.w3.org/2000/svg">
<path d="M98.7094 12.6724C99.8583 12.6724 100.828 12.9597 101.618 13.5341C102.422 14.1086 102.982 14.877 103.298 15.8392V12.8232H105.258V24.8441C105.258 25.9356 105.029 26.905 104.569 27.7524C104.109 28.5997 103.463 29.2604 102.63 29.7343C101.797 30.2082 100.828 30.4452 99.7219 30.4452C98.1277 30.4452 96.828 30.0574 95.8226 29.2819C94.8173 28.5207 94.1782 27.4867 93.9053 26.1797H95.8442C96.074 26.9696 96.5048 27.5872 97.1367 28.0324C97.783 28.492 98.6088 28.7218 99.6141 28.7218C100.677 28.7218 101.553 28.3771 102.242 27.6877C102.946 27.0127 103.298 26.0649 103.298 24.8441V21.6342C102.982 22.5965 102.422 23.3648 101.618 23.9393C100.828 24.5138 99.8583 24.801 98.7094 24.801C97.6609 24.801 96.7274 24.5569 95.9088 24.0686C95.0902 23.5802 94.4439 22.8837 93.9699 21.9789C93.5104 21.0597 93.2806 19.9826 93.2806 18.7475C93.2806 17.5124 93.5104 16.4352 93.9699 15.5161C94.4439 14.5969 95.0902 13.8932 95.9088 13.4049C96.7274 12.9166 97.6609 12.6724 98.7094 12.6724ZM99.2695 14.4174C98.0631 14.4174 97.0936 14.8052 96.3612 15.5807C95.6431 16.3419 95.2841 17.3975 95.2841 18.7475C95.2841 20.0975 95.6431 21.1603 96.3612 21.9358C97.0936 22.697 98.0631 23.0776 99.2695 23.0776C100.045 23.0776 100.734 22.8981 101.338 22.539C101.955 22.18 102.436 21.6773 102.781 21.031C103.126 20.3704 103.298 19.6092 103.298 18.7475C103.298 17.8858 103.126 17.1246 102.781 16.464C102.436 15.8033 101.955 15.3006 101.338 14.956C100.734 14.5969 100.045 14.4174 99.2695 14.4174ZM119.257 18.0797C119.257 18.4962 119.229 18.8552 119.171 19.1568H109.714C109.757 20.5068 110.138 21.5193 110.856 22.1943C111.588 22.8693 112.479 23.2068 113.527 23.2068C114.475 23.2068 115.265 22.9699 115.897 22.4959C116.543 22.0076 116.938 21.3613 117.082 20.5571H119.171C119.028 21.3757 118.705 22.1082 118.202 22.7544C117.714 23.4007 117.074 23.9034 116.285 24.2624C115.495 24.6215 114.604 24.801 113.613 24.801C112.479 24.801 111.473 24.5569 110.597 24.0686C109.721 23.5802 109.032 22.8837 108.529 21.9789C108.041 21.0597 107.797 19.9826 107.797 18.7475C107.797 17.5124 108.041 16.4352 108.529 15.5161C109.032 14.5969 109.721 13.8932 110.597 13.4049C111.473 12.9166 112.479 12.6724 113.613 12.6724C114.762 12.6724 115.76 12.9166 116.608 13.4049C117.469 13.8932 118.123 14.5466 118.568 15.3653C119.028 16.1839 119.257 17.0887 119.257 18.0797ZM117.276 18.2089C117.319 17.3328 117.175 16.6004 116.845 16.0116C116.514 15.4227 116.062 14.9847 115.487 14.6974C114.913 14.4102 114.288 14.2666 113.613 14.2666C112.536 14.2666 111.631 14.6041 110.899 15.2791C110.166 15.9397 109.771 16.9163 109.714 18.2089H117.276ZM128.047 12.6293C129.426 12.6293 130.539 13.0746 131.387 13.965C132.234 14.8411 132.658 16.1121 132.658 17.7781V24.6502H130.697V17.9504C130.697 16.7727 130.396 15.8679 129.792 15.236C129.189 14.6041 128.371 14.2881 127.337 14.2881C126.259 14.2881 125.398 14.64 124.751 15.3437C124.105 16.0331 123.782 17.0456 123.782 18.3813V24.6502H121.822V12.8232H123.782V15.6238C124.084 14.6615 124.615 13.9219 125.376 13.4049C126.152 12.8878 127.042 12.6293 128.047 12.6293ZM146.544 18.0797C146.544 18.4962 146.515 18.8552 146.457 19.1568H137C137.043 20.5068 137.424 21.5193 138.142 22.1943C138.874 22.8693 139.765 23.2068 140.813 23.2068C141.761 23.2068 142.551 22.9699 143.183 22.4959C143.829 22.0076 144.224 21.3613 144.368 20.5571H146.457C146.314 21.3757 145.991 22.1082 145.488 22.7544C145 23.4007 144.361 23.9034 143.571 24.2624C142.781 24.6215 141.89 24.801 140.899 24.801C139.765 24.801 138.759 24.5569 137.883 24.0686C137.007 23.5802 136.318 22.8837 135.815 21.9789C135.327 21.0597 135.083 19.9826 135.083 18.7475C135.083 17.5124 135.327 16.4352 135.815 15.5161C136.318 14.5969 137.007 13.8932 137.883 13.4049C138.759 12.9166 139.765 12.6724 140.899 12.6724C142.048 12.6724 143.046 12.9166 143.894 13.4049C144.756 13.8932 145.409 14.5466 145.854 15.3653C146.314 16.1839 146.544 17.0887 146.544 18.0797ZM144.562 18.2089C144.605 17.3328 144.461 16.6004 144.131 16.0116C143.8 15.4227 143.348 14.9847 142.774 14.6974C142.199 14.4102 141.574 14.2666 140.899 14.2666C139.822 14.2666 138.917 14.6041 138.185 15.2791C137.453 15.9397 137.058 16.9163 137 18.2089H144.562ZM151.068 15.2145C151.456 14.3958 152.023 13.7639 152.77 13.3187C153.517 12.8591 154.407 12.6293 155.441 12.6293V14.7621H154.838C153.732 14.7621 152.827 15.0493 152.124 15.6238C151.42 16.1839 151.068 17.1174 151.068 18.4243V24.6502H149.108V12.8232H151.068V15.2145ZM162.223 12.6724C163.372 12.6724 164.341 12.9597 165.131 13.5341C165.935 14.1086 166.495 14.877 166.811 15.8392V12.8232H168.772V24.6502H166.811V21.6342C166.495 22.5965 165.935 23.3648 165.131 23.9393C164.341 24.5138 163.372 24.801 162.223 24.801C161.174 24.801 160.241 24.5569 159.422 24.0686C158.603 23.5802 157.957 22.8837 157.483 21.9789C157.024 21.0597 156.794 19.9826 156.794 18.7475C156.794 17.5124 157.024 16.4352 157.483 15.5161C157.957 14.5969 158.603 13.8932 159.422 13.4049C160.241 12.9166 161.174 12.6724 162.223 12.6724ZM162.783 14.4174C161.576 14.4174 160.607 14.8052 159.875 15.5807C159.156 16.3419 158.797 17.3975 158.797 18.7475C158.797 20.0975 159.156 21.1603 159.875 21.9358C160.607 22.697 161.576 23.0776 162.783 23.0776C163.558 23.0776 164.248 22.8981 164.851 22.539C165.468 22.18 165.95 21.6773 166.294 21.031C166.639 20.3704 166.811 19.6092 166.811 18.7475C166.811 17.8858 166.639 17.1246 166.294 16.464C165.95 15.8033 165.468 15.3006 164.851 14.956C164.248 14.5969 163.558 14.4174 162.783 14.4174ZM175.597 12.6724C176.933 12.6724 178.003 13.0243 178.807 13.728C179.626 14.4174 180.121 15.3509 180.293 16.5286H178.419C178.333 15.8248 178.039 15.2504 177.536 14.8052C177.048 14.3456 176.387 14.1158 175.554 14.1158C174.85 14.1158 174.297 14.2881 173.895 14.6328C173.507 14.9631 173.314 15.4155 173.314 15.99C173.314 16.4209 173.443 16.7727 173.701 17.0456C173.974 17.3041 174.304 17.5052 174.692 17.6488C175.094 17.7781 175.64 17.9217 176.33 18.0797C177.206 18.2807 177.909 18.489 178.441 18.7044C178.986 18.9055 179.446 19.2358 179.819 19.6954C180.207 20.1549 180.401 20.7725 180.401 21.548C180.401 22.5103 180.035 23.293 179.302 23.8962C178.584 24.4994 177.622 24.801 176.416 24.801C175.008 24.801 173.859 24.4635 172.969 23.7885C172.078 23.1135 171.554 22.1728 171.396 20.9664H173.292C173.364 21.6845 173.673 22.2661 174.218 22.7114C174.778 23.1566 175.511 23.3792 176.416 23.3792C177.091 23.3792 177.615 23.2068 177.988 22.8622C178.376 22.5175 178.57 22.0651 178.57 21.505C178.57 21.0454 178.434 20.6792 178.161 20.4063C177.888 20.1334 177.55 19.9252 177.148 19.7815C176.746 19.6379 176.193 19.4871 175.489 19.3291C174.613 19.1281 173.91 18.927 173.378 18.7259C172.861 18.5249 172.416 18.2089 172.042 17.7781C171.683 17.3328 171.504 16.7368 171.504 15.99C171.504 14.999 171.87 14.202 172.603 13.5988C173.335 12.9812 174.333 12.6724 175.597 12.6724ZM182.676 9.35483C182.676 8.99579 182.798 8.70855 183.042 8.49312C183.286 8.26333 183.61 8.14844 184.012 8.14844C184.414 8.14844 184.737 8.26333 184.981 8.49312C185.225 8.70855 185.347 8.99579 185.347 9.35483C185.347 9.71388 185.225 10.0083 184.981 10.2381C184.737 10.4535 184.414 10.5612 184.012 10.5612C183.61 10.5612 183.286 10.4535 183.042 10.2381C182.798 10.0083 182.676 9.71388 182.676 9.35483ZM184.981 12.8232V24.6502H183.021V12.8232H184.981Z" fill="#8F0606" fill-opacity="0.75"/>
<path d="M93.8785 36.4611C93.8785 35.7596 94.1303 35.184 94.634 34.7343C95.1376 34.2667 95.8031 34.0328 96.6306 34.0328C97.458 34.0328 98.1235 34.2667 98.6272 34.7343C99.1308 35.184 99.3826 35.7596 99.3826 36.4611C99.3826 37.1446 99.1308 37.7202 98.6272 38.1879C98.1235 38.6376 97.458 38.8624 96.6306 38.8624C95.8031 38.8624 95.1376 38.6376 94.634 38.1879C94.1303 37.7202 93.8785 37.1446 93.8785 36.4611ZM98.924 40.6972V55.7526H94.3102V40.6972H98.924ZM109.151 35.7866V55.7526H104.538V35.7866H109.151ZM134.273 40.5353C136.125 40.5353 137.582 41.1109 138.644 42.2621C139.705 43.3953 140.235 44.9782 140.235 47.0107V55.7526H135.649V47.5504C135.649 46.597 135.388 45.8595 134.866 45.3379C134.363 44.7983 133.67 44.5285 132.789 44.5285C131.871 44.5285 131.143 44.8163 130.603 45.3919C130.082 45.9495 129.821 46.7409 129.821 47.7662V55.7526H125.207V47.5504C125.207 46.597 124.955 45.8595 124.451 45.3379C123.948 44.7983 123.255 44.5285 122.374 44.5285C121.457 44.5285 120.728 44.8073 120.188 45.3649C119.649 45.9225 119.379 46.7229 119.379 47.7662V55.7526H114.765V40.6972H119.379V43.2604C119.775 42.415 120.377 41.7494 121.187 41.2638C122.014 40.7781 122.976 40.5353 124.074 40.5353C125.225 40.5353 126.241 40.8051 127.123 41.3447C128.004 41.8663 128.67 42.6218 129.119 43.6111C129.641 42.6758 130.351 41.9293 131.251 41.3717C132.168 40.8141 133.175 40.5353 134.273 40.5353ZM145.298 36.4611C145.298 35.7596 145.549 35.184 146.053 34.7343C146.557 34.2667 147.222 34.0328 148.05 34.0328C148.877 34.0328 149.543 34.2667 150.046 34.7343C150.55 35.184 150.802 35.7596 150.802 36.4611C150.802 37.1446 150.55 37.7202 150.046 38.1879C149.543 38.6376 148.877 38.8624 148.05 38.8624C147.222 38.8624 146.557 38.6376 146.053 38.1879C145.549 37.7202 145.298 37.1446 145.298 36.4611ZM150.343 40.6972V55.7526H145.729V40.6972H150.343ZM161.677 40.5083C162.828 40.5083 163.817 40.7691 164.645 41.2907C165.472 41.8124 166.084 42.5229 166.479 43.4223V40.6972H171.066V55.7526H166.479V53.0275C166.084 53.9269 165.472 54.6374 164.645 55.159C163.817 55.6807 162.828 55.9415 161.677 55.9415C160.436 55.9415 159.32 55.6357 158.331 55.0241C157.36 54.3946 156.586 53.4952 156.011 52.326C155.453 51.1568 155.174 49.7898 155.174 48.2249C155.174 46.642 155.453 45.275 156.011 44.1238C156.586 42.9546 157.36 42.0642 158.331 41.4526C159.32 40.8231 160.436 40.5083 161.677 40.5083ZM163.161 44.5555C162.171 44.5555 161.371 44.8792 160.759 45.5268C160.166 46.1743 159.869 47.0737 159.869 48.2249C159.869 49.3761 160.166 50.2755 160.759 50.923C161.371 51.5706 162.171 51.8943 163.161 51.8943C164.132 51.8943 164.923 51.5616 165.535 50.896C166.165 50.2305 166.479 49.3401 166.479 48.2249C166.479 47.0917 166.165 46.2013 165.535 45.5538C164.923 44.8882 164.132 44.5555 163.161 44.5555ZM186.222 40.5353C187.949 40.5353 189.316 41.1109 190.324 42.2621C191.349 43.4133 191.861 44.9962 191.861 47.0107V55.7526H187.248V47.5504C187.248 46.5431 186.978 45.7606 186.438 45.203C185.917 44.6274 185.215 44.3396 184.334 44.3396C183.398 44.3396 182.652 44.6364 182.094 45.23C181.555 45.8236 181.285 46.669 181.285 47.7662V55.7526H176.671V35.7866H181.285V43.4492C181.717 42.5499 182.355 41.8394 183.201 41.3177C184.064 40.7961 185.071 40.5353 186.222 40.5353Z" fill="#8F0606"/>
<path fill-rule="evenodd" clip-rule="evenodd" d="M44.3889 11.7033C44.6828 12.2041 46.1962 13.4822 46.7617 14.0542C55.2133 22.6339 62.1708 36.6596 66.1513 48.05C67.5151 51.958 69.9017 58.8163 70.4035 63.0966C69.3224 63.6111 68.4964 64.298 67.6038 64.7331C66.9801 63.8847 66.4424 62.8667 65.8159 62.0019C63.4238 58.715 61.7606 57.333 59.0746 54.4731L54.0214 50.0067C47.1359 44.5551 33.6755 33.4768 24.0818 32.415C24.4671 31.9525 25.8836 31.1643 26.5045 30.7209C27.5079 30.0066 28.0263 29.4784 28.8883 28.7231C29.8253 27.9048 30.2355 27.4204 31.0615 26.5173C31.4025 26.1396 31.7407 25.8988 32.1176 25.4828C32.5944 24.9519 32.6665 24.6946 33.268 24.2868C36.6331 25.4746 45.2593 33.2989 48.7686 36.4681C49.384 37.0236 50.149 37.8802 50.8004 38.3072C47.9037 34.4183 35.8625 22.768 33.0767 21.5638C31.9901 22.5463 30.8037 23.8599 29.695 24.7931C25.9889 27.9021 23.3251 30.0203 19.1034 32.4834L18.0751 33.3126C32.5972 35.6471 49.298 48.0089 59.7066 57.2536C61.6303 58.9613 65.7411 62.8557 67.3072 64.8316C65.8769 67.0566 64.5797 65.8607 60.7987 64.8782C58.4177 64.2597 55.7871 63.6384 53.2951 63.1951C41.9275 61.1726 31.0394 60.8497 19.6634 63.1048C17.0772 63.6165 14.6684 64.1912 12.1986 64.8426C9.80086 65.4775 7.36988 66.4792 5.09691 67.0594C5.77603 65.5432 6.68522 64.3609 7.34771 62.4753C8.06841 60.42 8.17097 58.9613 8.38164 56.668C20.8969 54.4621 27.7324 53.351 40.3558 53.3483C41.9136 53.3483 43.9593 53.5919 45.4201 53.3647C44.8297 53.4222 37.8832 52.333 36.3005 52.1852C32.7746 51.854 29.3568 51.8102 25.7976 51.8759C22.8455 51.9334 8.28185 53.1704 6.89589 54.4649C6.51059 54.8261 6.47732 55.7812 6.31101 56.5667C5.79266 58.9997 5.27985 60.6554 4.42056 63.009C3.5474 65.3872 1.15246 70.2285 1 70.743C2.59109 70.4146 4.6035 69.6428 6.21954 69.1502C8.05732 68.5865 9.629 68.1568 11.4612 67.6614C28.5529 63.0418 47.366 62.8995 64.1694 68.7479C67.4431 69.8864 66.1929 69.7195 68.7874 68.1157C71.5206 66.4244 75.0464 64.6291 79.2321 65.0041C83.085 65.3489 86.5278 67.7134 87.983 69.766C91.1929 69.7742 94.8435 69.402 98.1283 69.2378C115.411 68.3648 143.081 67.6751 159.956 68.5481C162.986 68.7041 167.108 69.0818 169.982 68.9149C151.274 67.177 110.838 66.6625 90.6967 68.1431C88.4321 68.3073 88.992 67.7654 86.5388 65.743C78.1704 58.8464 72.6709 62.6806 70.8886 62.7298C70.5227 54.0078 66.1735 42.426 62.9969 35.2639C60.2194 29.0022 56.3276 20.8933 51.7041 15.792C50.9473 14.9573 50.1934 14.4401 49.4034 13.6409C57.1842 13.4357 56.9901 12.3492 62.3178 11.364C64.9927 15.7592 66.958 21.4926 68.4077 26.5282C68.4659 26.728 68.538 26.9743 68.5989 27.1112C68.6239 27.1686 68.7181 27.3383 68.7459 27.3876L68.9233 27.653C68.5407 21.2983 65.0398 14.5139 63.4709 9.29498C62.1154 9.4455 60.4966 9.98738 59.0552 10.3048C53.3672 11.5583 49.9467 11.3722 44.3889 11.7033V11.7033Z" fill="#8F0606" stroke="#B11A1A" stroke-width="1.37876" stroke-miterlimit="22.9256"/>
</svg>
