<svg width="36" height="38" viewBox="0 0 36 38" fill="none" xmlns="http://www.w3.org/2000/svg">
<path d="M16.8455 18.8516C21.2228 18.8516 24.7713 15.3031 24.7713 10.9258C24.7713 6.5485 21.2228 3 16.8455 3C12.4682 3 8.91968 6.5485 8.91968 10.9258C8.91968 15.3031 12.4682 18.8516 16.8455 18.8516Z" stroke="white" stroke-width="5"/>
<path d="M24.7713 34.7033H6.17101C5.72143 34.7034 5.27697 34.6078 4.86713 34.423C4.45729 34.2382 4.09144 33.9684 3.79387 33.6314C3.49629 33.2944 3.27379 32.8979 3.14114 32.4684C3.00849 32.0388 2.96872 31.5859 3.02447 31.1398L3.64268 26.1878C3.78645 25.0373 4.34557 23.979 5.21489 23.2118C6.08422 22.4447 7.20387 22.0215 8.36329 22.022H8.91968" stroke="white" stroke-width="5" stroke-linecap="round" stroke-linejoin="round"/>
<path d="M23.1861 25.1923L26.7527 28.3626L32.6971 22.022" stroke="white" stroke-width="5" stroke-linecap="round" stroke-linejoin="round"/>
</svg>
