<svg width="35" height="35" viewBox="0 0 35 35" fill="none" xmlns="http://www.w3.org/2000/svg">
<path d="M31.25 5.125H28.5V3.75C28.4993 3.02088 28.2093 2.32183 27.6937 1.80626C27.1782 1.29069 26.4791 1.00073 25.75 1H9.25C8.52088 1.00073 7.82183 1.29069 7.30626 1.80626C6.79069 2.32183 6.50073 3.02088 6.5 3.75V5.125H3.75C3.02088 5.12573 2.32183 5.41569 1.80626 5.93126C1.29069 6.44683 1.00073 7.14588 1 7.875V12C1.00182 13.4581 1.58187 14.856 2.61292 15.8871C3.64398 16.9181 5.04187 17.4982 6.5 17.5H6.94275C7.51572 19.6047 8.68914 21.4971 10.3197 22.946C11.9503 24.3949 13.9675 25.3377 16.125 25.6593V31.25H9.25V34H25.75V31.25H18.875V25.6551C21.0605 25.3849 23.1138 24.4623 24.7671 23.0075C26.4203 21.5527 27.5966 19.6334 28.1425 17.5H28.5C29.9581 17.4982 31.356 16.9181 32.3871 15.8871C33.4181 14.856 33.9982 13.4581 34 12V7.875C33.9993 7.14588 33.7093 6.44683 33.1937 5.93126C32.6782 5.41569 31.9791 5.12573 31.25 5.125V5.125ZM6.5 14.75C5.77088 14.7493 5.07183 14.4593 4.55626 13.9437C4.04069 13.4282 3.75073 12.7291 3.75 12V7.875H6.5V14.75ZM25.75 14.75C25.75 15.8549 25.528 16.9486 25.0973 17.9661C24.6665 18.9836 24.0358 19.9042 23.2424 20.6733C22.4491 21.4423 21.5094 22.0442 20.479 22.4432C19.4487 22.8422 18.3486 23.0301 17.2443 22.9959C15.055 22.8596 13.0024 21.8847 11.5135 20.2739C10.0246 18.6631 9.21392 16.5404 9.25 14.3471V3.75H25.75V14.75ZM31.25 12C31.2493 12.7291 30.9593 13.4282 30.4437 13.9437C29.9282 14.4593 29.2291 14.7493 28.5 14.75V7.875H31.25V12Z" fill="white" stroke="white"/>
</svg>
