<svg width="40" height="36" viewBox="0 0 40 36" fill="none" xmlns="http://www.w3.org/2000/svg">
<path d="M2.12257 10.2652C2.19144 10.1088 2.29086 9.96709 2.4154 9.84824C2.53995 9.72938 2.68717 9.63574 2.84877 9.5729C3.01038 9.51005 3.18306 9.47931 3.35689 9.48251C3.53073 9.48572 3.7021 9.52282 3.86119 9.59156C4.02027 9.6603 4.16382 9.75927 4.28376 9.88259C4.40369 10.0059 4.49769 10.1511 4.56061 10.3099C4.62353 10.4687 4.6542 10.638 4.651 10.8083C4.64821 10.9566 4.61976 11.1033 4.56695 11.242L4.54004 11.3032C3.18524 14.3823 2.798 17.7946 3.42902 21.0952C4.05974 24.3942 5.67836 27.428 8.07333 29.802C8.31117 30.0474 8.4419 30.3743 8.43893 30.7126C8.43595 31.0522 8.29847 31.3781 8.05457 31.6197C7.81053 31.8614 7.47941 31.9994 7.1323 32.0023C6.78653 32.0053 6.45424 31.8741 6.20624 31.6383C0.371501 25.8576 -0.986799 17.3274 2.12257 10.2652ZM2.12257 10.2652L1.66534 10.0639L2.12257 10.2652ZM3.64672 0.50005C3.9925 0.497073 4.32479 0.628274 4.57279 0.864097L17.2967 13.4681L17.5457 13.7147L17.8624 13.5649C18.7874 13.1272 19.8271 12.9843 20.8379 13.1561C21.8487 13.3279 22.7802 13.8058 23.5044 14.5231C24.2285 15.2404 24.7097 16.1618 24.8826 17.1601C25.0555 18.1585 24.9118 19.1855 24.4709 20.0999L24.316 20.4212L24.5694 20.6723L27.2331 23.3108L27.6642 23.7379L28.0009 23.233C29.2205 21.4046 29.7655 19.2143 29.543 17.0329C29.3204 14.8515 28.3442 12.8139 26.7805 11.2646L26.7805 11.2646L26.7742 11.2585C26.6485 11.1383 26.5485 10.9947 26.4798 10.8363C26.4111 10.6779 26.3751 10.5077 26.3735 10.3356C26.372 10.1635 26.4051 9.99276 26.471 9.83322C26.5369 9.67368 26.6344 9.52842 26.7579 9.40604C26.8815 9.28365 27.0286 9.18661 27.191 9.12081C27.3534 9.05501 27.5275 9.02184 27.7032 9.02335C27.8789 9.02486 28.0524 9.06102 28.2135 9.1296C28.3747 9.19817 28.5201 9.29772 28.6415 9.42219L28.6414 9.42224L28.6476 9.42834C30.7264 11.4877 31.9858 14.2193 32.1964 17.1222C32.4069 20.0252 31.5547 22.9067 29.7949 25.2389L29.5317 25.5878L29.8421 25.8953L32.433 28.4618L32.8265 28.8515L33.1741 28.4204C35.7637 25.2089 37.0682 21.1639 36.8372 17.0587C36.6061 12.9534 34.8559 9.07738 31.9223 6.17125L31.9223 6.1712L31.916 6.16518C31.7903 6.04492 31.6903 5.90133 31.6216 5.74292C31.553 5.58453 31.5169 5.41434 31.5154 5.24226C31.5138 5.07017 31.5469 4.89941 31.6128 4.73987C31.6787 4.58033 31.7762 4.43506 31.8997 4.31269C32.0233 4.1903 32.1705 4.09325 32.3328 4.02746C32.4952 3.96166 32.6693 3.92849 32.845 3.93C33.0207 3.93151 33.1942 3.96767 33.3553 4.03625C33.5165 4.10482 33.6619 4.20437 33.7833 4.32884L33.7832 4.32889L33.7894 4.33505C40.981 11.4571 41.3796 22.759 34.988 30.3436L34.6909 30.6963L35.0183 31.0209L37.2965 33.2794L37.2968 33.2797C37.5436 33.524 37.6815 33.8545 37.6816 34.1981C37.6818 34.5418 37.5441 34.8723 37.2975 35.1168C37.0506 35.3615 36.7148 35.4999 36.3636 35.5C36.0123 35.5001 35.6764 35.362 35.4294 35.1175L31.9223 31.6417L31.9222 31.6415L26.7786 26.5483L26.7786 26.5482L2.70565 2.70034C2.46784 2.45495 2.33712 2.12808 2.34009 1.78978C2.34307 1.45016 2.48056 1.12433 2.72445 0.882737C2.9685 0.64099 3.29961 0.503038 3.64672 0.50005ZM11.3575 26.5544L11.3576 26.5544L11.3512 26.5481C9.97121 25.1825 8.94194 23.5097 8.34916 21.6699C7.75678 19.8314 7.61741 17.8792 7.94258 15.9766C8.00558 15.6434 8.1981 15.3466 8.48063 15.1506C8.76427 14.954 9.11539 14.8752 9.45799 14.9324C9.80053 14.9895 10.1054 15.1775 10.3076 15.4543C10.5088 15.7297 10.5927 16.0714 10.5423 16.4063C10.2864 17.9014 10.3956 19.4355 10.8608 20.8801C11.3265 22.3263 12.1352 23.6403 13.2188 24.7122L13.2187 24.7123L13.2248 24.7181C13.3505 24.8383 13.4504 24.9819 13.5191 25.1403C13.5878 25.2987 13.6239 25.4689 13.6254 25.641C13.6269 25.8131 13.5938 25.9838 13.5279 26.1434C13.4621 26.3029 13.3646 26.4482 13.2411 26.5706C13.1175 26.693 12.9703 26.79 12.808 26.8558C12.6456 26.9216 12.4715 26.9548 12.2958 26.9533C12.1201 26.9517 11.9466 26.9156 11.7854 26.847C11.6243 26.7784 11.4789 26.6789 11.3575 26.5544Z" fill="white" stroke="white"/>
</svg>
