<?xml version="1.0" encoding="UTF-8"?>
<!DOCTYPE svg PUBLIC "-//W3C//DTD SVG 1.1//EN" "http://www.w3.org/Graphics/SVG/1.1/DTD/svg11.dtd">
<!-- Creator: CorelDRAW 2017 -->
<svg xmlns="http://www.w3.org/2000/svg" xml:space="preserve" width="3125px" height="905px" version="1.1" style="shape-rendering:geometricPrecision; text-rendering:geometricPrecision; image-rendering:optimizeQuality; fill-rule:evenodd; clip-rule:evenodd"
viewBox="0 0 3125 905.07"
 xmlns:xlink="http://www.w3.org/1999/xlink">
 <defs>
  <style type="text/css">
   <![CDATA[
    .fil0 {fill:#FEFEFE;fill-rule:nonzero}
    .fil1 {fill:#EA5B24;fill-rule:nonzero}
    .fil2 {fill:#006C8F;fill-rule:nonzero}
   ]]>
  </style>
 </defs>
 <g id="Layer_x0020_1">
  <metadata id="CorelCorpID_0Corel-Layer"/>
  <g id="_2190213531312">
   <polygon class="fil0" points="859.81,856.69 0,856.69 0,0 859.81,0 "/>
   <path class="fil1" d="M344.45 578.17l91.17 -73.7c-15.12,-19.06 -29.54,-38.71 -43.3,-58.55 -105.84,-152.74 -168.2,-308.39 -123.01,-445.92l-269.31 0 0 148.51 344.45 429.66z"/>
   <path class="fil1" d="M488.57 356.08c5.66,-48.43 20.26,-139.99 109.28,-207.81 77.1,-58.74 173.37,-69.99 258.8,-33.77l0 -114.5 -475.37 0c-31.41,139.48 51.13,292.65 107.29,356.08z"/>
   <path class="fil1" d="M603.74 216.43l-0.31 0.26c-89.42,72.6 -67.41,186.6 15.71,288.93 64.25,79.11 150.07,134.51 237.51,92.51l0 -337.05c-78.53,-80.4 -172.8,-109.73 -252.91,-44.65z"/>
   <polygon class="fil1" points="0,324.27 0,856.68 0.05,856.68 259.27,647.06 "/>
   <path class="fil1" d="M471.33 546.84c-25.29,20.94 -56.83,46.68 -91.85,75l33.62 41.94c48.82,60.92 119.94,166.23 208.25,137.74l3.24 4.01 -62.68 51.15 294.74 0 0 -202.72c-151.67,82.48 -281.94,7.43 -385.32,-107.12z"/>
   <path class="fil1" d="M329.07 734.01l-34.83 -43.39c-71.38,57.36 -146.76,117.56 -207.69,166.06l329.88 0c-21.45,-45.54 -60.41,-89.09 -87.36,-122.67z"/>
   <path class="fil2" d="M1570.41 357.94c78.86,-13.8 130.12,-82.05 130.12,-169.24 0,-115.75 -100.2,-188.7 -272.02,-188.7l-339.83 0 0 3.89c69.39,38.12 67.83,99.54 67.83,158.09l0 531.24c0,59.82 1.56,121.88 -67.83,159.31l0 3.89 163.63 0c159.93,0 282.35,2.72 374.03,-40.31 97.19,-45.68 156.25,-127.57 156.25,-227.8 0,-127.54 -95.07,-205.63 -212.18,-230.37zm-280.59 -279.02l107.46 1.84c79.76,0 161.38,39 161.38,128.84 0,106.72 -72.12,135.35 -175.02,135.35l-93.82 0.19 0 -0.19 0 -266.03zm103.63 689.38l-103.63 0.17 0 -337.62 0 -4.83 111.35 -0.42c129.79,0 236.89,48.21 236.89,174.44 0,123.7 -112.43,168.26 -244.61,168.26z"/>
   <path class="fil2" d="M2043.03 693.39c0,72.93 -1.32,125.01 67.65,165.32l0 3.89 -230.37 0 0 -3.89c69.04,-40.31 67.84,-92.39 67.84,-165.32l0 -520.43c0,-72.88 1.2,-130.03 -67.72,-169.07l0 -3.89 191.23 0 0 1.31c5.21,15.64 13.52,24.19 19.56,32.53 5.99,8.31 18.17,26 18.17,26l438.59 591.28 0 -483.2c0,-72.88 1.33,-124.99 -67.7,-164.03l0 -3.89 229.11 0 0 3.89c-67.7,39.04 -67.7,91.15 -67.7,164.03l0 737.15c-41.68,-16.6 -158.45,-113.63 -241.48,-225.32 -148.9,-200.33 -357.18,-478.58 -357.18,-478.58l0 492.22z"/>
   <path class="fil2" d="M2922.9 155.17c0,-59.84 -0.86,-113.12 -67.41,-151.28l0 -3.89 269.51 0 0 3.89c-66.72,37.04 -67.32,92.73 -67.32,151.28l0 547.56c0,58.48 -1.53,117.53 67.32,155.84l0 3.87 -269.51 0 0 -3.87c69.25,-38.71 67.41,-96.91 67.41,-155.44l0 -547.96z"/>
  </g>
 </g>
</svg>
