<?xml version="1.0" encoding="UTF-8"?>
<!DOCTYPE svg PUBLIC "-//W3C//DTD SVG 1.1//EN" "http://www.w3.org/Graphics/SVG/1.1/DTD/svg11.dtd">
<!-- Creator: CorelDRAW 2017 -->
<svg xmlns="http://www.w3.org/2000/svg" xml:space="preserve" width="2969px" height="620px" version="1.1" style="shape-rendering:geometricPrecision; text-rendering:geometricPrecision; image-rendering:optimizeQuality; fill-rule:evenodd; clip-rule:evenodd"
viewBox="0 0 2969 619.42"
 xmlns:xlink="http://www.w3.org/1999/xlink">
 <defs>
  <style type="text/css">
   <![CDATA[
    .fil0 {fill:#15499A}
   ]]>
  </style>
 </defs>
 <g id="Layer_x0020_1">
  <metadata id="CorelCorpID_0Corel-Layer"/>
  <g id="_2155062306368">
   <path class="fil0" d="M103.9 0l461.32 0c57.15,0 103.9,42.68 103.9,94.87l0 429.68c0,52.18 -46.75,94.87 -103.9,94.87l-461.32 0c-57.14,0 -103.9,-42.69 -103.9,-94.87l0 -429.68c0,-52.19 46.76,-94.87 103.9,-94.87zm11.15 44.07l81.84 0c22.44,9.44 40.59,24.23 53.09,41.13 14.99,20.3 21.53,42.96 16.95,61.85 -0.13,0.56 -0.39,1.46 -0.77,2.7 -11.3,36.99 -49.8,70.99 -88.97,105.58 -11.31,9.99 -22.67,20.02 -33.9,30.55l-23.13 21.71 23.4 21.4 0.02 0.03 0.06 -0.06c11.11,10.42 22.36,20.35 33.55,30.23 39.17,34.59 77.67,68.59 88.97,105.58 0.38,1.24 0.64,2.14 0.77,2.69 4.58,18.9 -1.96,41.56 -16.95,61.85 -14.94,20.22 -37.96,37.41 -66.74,46.03l-68.19 0c-22.79,0 -41.45,-18.73 -41.45,-41.62l0 -448.03c0,-22.89 18.66,-41.62 41.45,-41.62zm185.3 0l82.54 0c22.45,9.44 40.6,24.23 53.09,41.13 15,20.3 21.53,42.96 16.95,61.85 -0.13,0.56 -0.39,1.46 -0.77,2.7 -11.3,36.98 -49.8,70.99 -88.97,105.58 -11.3,9.99 -22.66,20.02 -33.89,30.55l-22.59 21.2 22.46 21.44 249.76 238.46c-6.94,5.24 -15.55,8.36 -24.86,8.36l-257.88 0c3.35,-3.8 6.51,-7.7 9.44,-11.68 24.97,-33.79 35.31,-73.79 26.68,-109.4 -0.56,-2.31 -1.08,-4.25 -1.56,-5.82 -16.26,-53.24 -61.29,-93 -107.09,-133.45 -2.92,-2.57 -5.83,-5.15 -8.75,-7.73 2.92,-2.58 5.83,-5.16 8.75,-7.74 45.8,-40.44 90.83,-80.2 107.09,-133.44 0.48,-1.57 1,-3.51 1.56,-5.81 8.63,-35.62 -1.71,-75.62 -26.68,-109.41 -1.69,-2.29 -3.45,-4.55 -5.28,-6.79zm186 0l67.72 0c22.8,0 41.46,18.73 41.46,41.62l0 408.49 -195.22 -186.38c3.11,-2.76 6.23,-5.52 9.35,-8.28 45.8,-40.44 90.83,-80.2 107.09,-133.44 0.49,-1.57 1,-3.51 1.56,-5.81 8.63,-35.62 -1.7,-75.62 -26.67,-109.41 -1.69,-2.29 -3.46,-4.55 -5.29,-6.79z"/>
   <path class="fil0" d="M1766.58 168.39l86.63 0 0 124.2 108.2 -124.2 103.1 0 -118.33 132.27 124.03 153.19 -109.87 0 -107.13 -133.57 0 133.57 -86.63 0 0 -285.46zm-343.93 0l119.58 0 103.54 210.94 0 -210.94 76.48 0 0 285.46 -120 0 -103.11 -214.09 0 214.09 -76.49 0 0 -285.46zm-253.51 0l110.81 0 128.98 285.46 -103.54 0 -21.81 -62.2 -128.53 0 -21.34 62.2 -96.74 0 132.17 -285.46zm89.47 173.88l-39.06 -115.13 -43.15 115.13 82.21 0zm-489.13 -173.88l140.64 0c5.22,0.26 13.36,0.65 24.38,1.18 11.04,0.52 22.51,2.37 34.41,5.52 15.38,3.94 29.53,10.77 42.45,20.5 12.92,9.73 20.26,24.58 22,44.56 0,0.52 0,0.98 0,1.38 0,0.4 0.14,0.85 0.43,1.38 0,0.52 0,0.98 0,1.37 0,0.4 0,0.86 0,1.39 0,15.77 -6.25,29.24 -18.72,40.41 -12.49,11.18 -29.18,17.55 -50.1,19.13 0.31,0 0.53,0.07 0.68,0.19 0.14,0.13 0.36,0.2 0.64,0.2 18.58,4.73 35.56,12.35 50.95,22.87 15.38,10.51 23.08,26.55 23.08,48.1 0,27.87 -10.96,47.71 -32.88,59.54 -21.91,11.83 -54.35,17.74 -97.32,17.74l-140.64 0 0 -285.46zm89.25 229.48l47.91 0c13.06,0.26 22.65,-1.91 28.73,-6.51 6.1,-4.61 9.87,-9.66 11.33,-15.18 0.29,-1.05 0.51,-2.04 0.65,-2.96 0.15,-0.92 0.22,-1.91 0.22,-2.95 0,-1.59 -0.15,-3.23 -0.44,-4.94 -0.28,-1.7 -0.87,-3.48 -1.73,-5.32 -2.03,-4.99 -5.89,-9.65 -11.55,-14 -5.66,-4.34 -13.56,-6.5 -23.73,-6.5l-51.39 -0.4 0 58.76zm0 -117.9l44.43 0c13.63,0.27 23.37,-1.97 29.16,-6.7 5.82,-4.73 8.72,-11.7 8.72,-20.9 0,-7.62 -3.34,-14.19 -10.01,-19.72 -6.69,-5.51 -15.98,-8.28 -27.87,-8.28l-44.43 -0.39 0 55.99z"/>
   <path class="fil0" d="M2879.01 168.39l89.99 0 0 285.46 -89.99 0 0 -285.46zm-326.33 0l141.8 0c1.47,0.26 2.87,0.38 4.18,0.38 1.3,0 2.71,0 4.17,0 29.86,0.54 57.22,5.66 82.09,15.38 24.89,9.73 37.33,29.45 37.33,59.15 0,23.13 -7.47,40.03 -22.38,50.67 -14.93,10.65 -32.8,17.54 -53.58,20.7 31.33,1.05 50.73,10.51 58.19,28.39 15.29,36.61 28.68,75.2 43.36,110.79l-96.6 0c-12.7,-25.76 -24.12,-61.93 -34.36,-89.5 -4.69,-12.62 -15.65,-18.93 -32.93,-18.93l-41.29 -0.39 0 108.82 -89.98 0 0 -285.46zm89.98 58.75l0 62.3 34.7 0c1.46,0.25 2.84,0.38 4.17,0.38 1.31,0 2.71,0 4.18,0 10.82,-0.51 20.78,-2.75 29.84,-6.69 9.08,-3.95 13.62,-12.1 13.62,-24.45 0,-10.78 -4.67,-18.67 -14.05,-23.66 -9.35,-5 -20.94,-7.49 -34.69,-7.49l-37.77 -0.39zm-404.35 -58.75l141.8 0c5.28,0.26 13.48,0.65 24.6,1.18 11.11,0.52 22.7,2.37 34.69,5.52 15.52,3.94 29.77,10.77 42.8,20.5 13.04,9.73 20.42,24.58 22.18,44.56 0,0.52 0,0.98 0,1.38 0,0.4 0.14,0.85 0.43,1.38 0,0.52 0,0.98 0,1.37 0,0.4 0,0.86 0,1.39 0,15.77 -6.28,29.24 -18.88,40.41 -12.58,11.18 -29.41,17.55 -50.48,19.13 0.29,0 0.49,0.07 0.65,0.19 0.14,0.13 0.36,0.2 0.66,0.2 18.72,4.73 35.87,12.35 51.36,22.87 15.52,10.51 23.29,26.55 23.29,48.1 0,27.87 -11.07,47.71 -33.16,59.54 -22.09,11.83 -54.8,17.74 -98.14,17.74l-141.8 0 0 -285.46zm90.01 229.48l48.29 0c13.17,0.26 22.83,-1.91 28.98,-6.51 6.14,-4.61 9.96,-9.66 11.4,-15.18 0.3,-1.05 0.52,-2.04 0.66,-2.96 0.16,-0.92 0.22,-1.91 0.22,-2.95 0,-1.59 -0.15,-3.23 -0.42,-4.94 -0.3,-1.7 -0.88,-3.48 -1.77,-5.32 -2.05,-4.99 -5.91,-9.65 -11.63,-14 -5.71,-4.34 -13.69,-6.5 -23.94,-6.5l-51.79 -0.4 0 58.76zm0 -117.9l44.76 0c13.78,0.27 23.56,-1.97 29.44,-6.7 5.85,-4.73 8.78,-11.7 8.78,-20.9 0,-7.62 -3.39,-14.19 -10.09,-19.72 -6.76,-5.51 -16.11,-8.28 -28.13,-8.28l-44.76 -0.39 0 55.99z"/>
  </g>
 </g>
</svg>
