<svg width="102" height="163" viewBox="0 0 102 163" fill="none" xmlns="http://www.w3.org/2000/svg">
<rect width="9.27273" height="9.27273" fill="#FF7272"/>
<rect y="26.2727" width="9.27273" height="9.27273" fill="#FF7272"/>
<rect y="51" width="9.27273" height="9.27273" fill="#FF7272"/>
<rect y="77.2727" width="9.27273" height="9.27273" fill="#FF7272"/>
<rect y="102" width="9.27273" height="9.27273" fill="#FF7272"/>
<rect y="128.273" width="9.27273" height="9.27273" fill="#FF7272"/>
<rect y="153" width="9.27273" height="9.27273" fill="#FF7272"/>
<rect x="30.9091" width="9.27273" height="9.27273" fill="#FF7272"/>
<rect x="30.9091" y="26.2727" width="9.27273" height="9.27273" fill="#FF7272"/>
<rect x="30.9091" y="51" width="9.27273" height="9.27273" fill="#FF7272"/>
<rect x="30.9091" y="77.2727" width="9.27273" height="9.27273" fill="#FF7272"/>
<rect x="30.9091" y="102" width="9.27273" height="9.27273" fill="#FF7272"/>
<rect x="30.9091" y="128.273" width="9.27273" height="9.27273" fill="#FF7272"/>
<rect x="30.9091" y="153" width="9.27273" height="9.27273" fill="#FF7272"/>
<rect x="61.8182" width="9.27273" height="9.27273" fill="#FF7272"/>
<rect x="61.8182" y="26.2727" width="9.27273" height="9.27273" fill="#FF7272"/>
<rect x="61.8182" y="51" width="9.27273" height="9.27273" fill="#FF7272"/>
<rect x="61.8182" y="77.2727" width="9.27273" height="9.27273" fill="#FF7272"/>
<rect x="61.8182" y="102" width="9.27273" height="9.27273" fill="#FF7272"/>
<rect x="61.8182" y="128.273" width="9.27273" height="9.27273" fill="#FF7272"/>
<rect x="61.8182" y="153" width="9.27273" height="9.27273" fill="#FF7272"/>
<rect x="92.7273" width="9.27273" height="9.27273" fill="#FF7272"/>
<rect x="92.7273" y="26.2727" width="9.27273" height="9.27273" fill="#FF7272"/>
<rect x="92.7273" y="51" width="9.27273" height="9.27273" fill="#FF7272"/>
<rect x="92.7273" y="77.2727" width="9.27273" height="9.27273" fill="#FF7272"/>
<rect x="92.7273" y="102" width="9.27273" height="9.27273" fill="#FF7272"/>
<rect x="92.7273" y="128.273" width="9.27273" height="9.27273" fill="#FF7272"/>
<rect x="92.7273" y="153" width="9.27273" height="9.27273" fill="#FF7272"/>
</svg>
