<svg width="163" height="102" viewBox="0 0 163 102" fill="none" xmlns="http://www.w3.org/2000/svg">
<rect y="102" width="9.27273" height="9.27273" transform="rotate(-90 0 102)" fill="#FF7272"/>
<rect x="26.2727" y="102" width="9.27273" height="9.27273" transform="rotate(-90 26.2727 102)" fill="#FF7272"/>
<rect x="51" y="102" width="9.27273" height="9.27273" transform="rotate(-90 51 102)" fill="#FF7272"/>
<rect x="77.2727" y="102" width="9.27273" height="9.27273" transform="rotate(-90 77.2727 102)" fill="#FF7272"/>
<rect x="102" y="102" width="9.27273" height="9.27273" transform="rotate(-90 102 102)" fill="#FF7272"/>
<rect x="128.273" y="102" width="9.27273" height="9.27273" transform="rotate(-90 128.273 102)" fill="#FF7272"/>
<rect x="153" y="102" width="9.27273" height="9.27273" transform="rotate(-90 153 102)" fill="#FF7272"/>
<rect y="71.0909" width="9.27273" height="9.27273" transform="rotate(-90 0 71.0909)" fill="#FF7272"/>
<rect x="26.2727" y="71.0909" width="9.27273" height="9.27273" transform="rotate(-90 26.2727 71.0909)" fill="#FF7272"/>
<rect x="51" y="71.0909" width="9.27273" height="9.27273" transform="rotate(-90 51 71.0909)" fill="#FF7272"/>
<rect x="77.2727" y="71.0909" width="9.27273" height="9.27273" transform="rotate(-90 77.2727 71.0909)" fill="#FF7272"/>
<rect x="102" y="71.0909" width="9.27273" height="9.27273" transform="rotate(-90 102 71.0909)" fill="#FF7272"/>
<rect x="128.273" y="71.0909" width="9.27273" height="9.27273" transform="rotate(-90 128.273 71.0909)" fill="#FF7272"/>
<rect x="153" y="71.0909" width="9.27273" height="9.27273" transform="rotate(-90 153 71.0909)" fill="#FF7272"/>
<rect y="40.1818" width="9.27273" height="9.27273" transform="rotate(-90 0 40.1818)" fill="#FF7272"/>
<rect x="26.2727" y="40.1818" width="9.27273" height="9.27273" transform="rotate(-90 26.2727 40.1818)" fill="#FF7272"/>
<rect x="51" y="40.1818" width="9.27273" height="9.27273" transform="rotate(-90 51 40.1818)" fill="#FF7272"/>
<rect x="77.2727" y="40.1818" width="9.27273" height="9.27273" transform="rotate(-90 77.2727 40.1818)" fill="#FF7272"/>
<rect x="102" y="40.1818" width="9.27273" height="9.27273" transform="rotate(-90 102 40.1818)" fill="#FF7272"/>
<rect x="128.273" y="40.1818" width="9.27273" height="9.27273" transform="rotate(-90 128.273 40.1818)" fill="#FF7272"/>
<rect x="153" y="40.1818" width="9.27273" height="9.27273" transform="rotate(-90 153 40.1818)" fill="#FF7272"/>
<rect y="9.27274" width="9.27273" height="9.27273" transform="rotate(-90 0 9.27274)" fill="#FF7272"/>
<rect x="26.2727" y="9.27274" width="9.27273" height="9.27273" transform="rotate(-90 26.2727 9.27274)" fill="#FF7272"/>
<rect x="51" y="9.27274" width="9.27273" height="9.27273" transform="rotate(-90 51 9.27274)" fill="#FF7272"/>
<rect x="77.2727" y="9.27274" width="9.27273" height="9.27273" transform="rotate(-90 77.2727 9.27274)" fill="#FF7272"/>
<rect x="102" y="9.27274" width="9.27273" height="9.27273" transform="rotate(-90 102 9.27274)" fill="#FF7272"/>
<rect x="128.273" y="9.27274" width="9.27273" height="9.27273" transform="rotate(-90 128.273 9.27274)" fill="#FF7272"/>
<rect x="153" y="9.27274" width="9.27273" height="9.27273" transform="rotate(-90 153 9.27274)" fill="#FF7272"/>
</svg>
